HIERARCHY
ROOT mixamorig:Hips
{
	OFFSET 0.000000 35.082581 0.000000
	CHANNELS 6 Xposition Yposition Zposition Xrotation Yrotation Zrotation
	JOINT mixamorig:Spine
	{
		OFFSET 0.000000 6.876099 0.125700
		CHANNELS 3 Xrotation Yrotation Zrotation
		JOINT mixamorig:Spine1
		{
			OFFSET 0.000000 8.022060 0.146608
			CHANNELS 3 Xrotation Yrotation Zrotation
			JOINT mixamorig:Spine2
			{
				OFFSET 0.000000 9.168068 0.167552
				CHANNELS 3 Xrotation Yrotation Zrotation
				JOINT mixamorig:Neck
				{
					OFFSET 0.000000 10.314075 0.188496
					CHANNELS 3 Xrotation Yrotation Zrotation
					JOINT mixamorig:Head
					{
						OFFSET 0.000000 7.643700 -2.377400
						CHANNELS 3 Xrotation Yrotation Zrotation
						JOINT mixamorig:HeadTop_End
						{
							OFFSET 0.000000 43.788605 -13.619600
							CHANNELS 3 Xrotation Yrotation Zrotation
							End Site
							{
								OFFSET 0.000000 45.857773 0.000000
							}
						}
					}
				}
				JOINT mixamorig:LeftShoulder
				{
					OFFSET 4.392200 8.824978 0.174984
					CHANNELS 3 Xrotation Yrotation Zrotation
					JOINT mixamorig:LeftArm
					{
						OFFSET 8.771219 -2.981674 -0.026999
						CHANNELS 3 Xrotation Yrotation Zrotation
						JOINT mixamorig:LeftForeArm
						{
							OFFSET 8.512804 0.000000 -0.000000
							CHANNELS 3 Xrotation Yrotation Zrotation
							JOINT mixamorig:LeftHand
							{
								OFFSET 18.484802 0.000000 -0.000000
								CHANNELS 3 Xrotation Yrotation Zrotation
								JOINT mixamorig:LeftHandThumb1
								{
									OFFSET 2.499420 -1.158070 2.653252
									CHANNELS 3 Xrotation Yrotation Zrotation
									JOINT mixamorig:LeftHandThumb2
									{
										OFFSET 2.370079 -1.368366 1.368366
										CHANNELS 3 Xrotation Yrotation Zrotation
										JOINT mixamorig:LeftHandThumb3
										{
											OFFSET 2.676727 -1.545410 1.545409
											CHANNELS 3 Xrotation Yrotation Zrotation
											JOINT mixamorig:LeftHandThumb4
											{
												OFFSET 1.692226 -0.977005 0.977007
												CHANNELS 3 Xrotation Yrotation Zrotation
												End Site
												{
													OFFSET 1.583839 -0.994667 1.129075
												}
											}
										}
									}
								}
								JOINT mixamorig:LeftHandIndex1
								{
									OFFSET 7.924831 -0.457527 2.345128
									CHANNELS 3 Xrotation Yrotation Zrotation
									JOINT mixamorig:LeftHandIndex2
									{
										OFFSET 3.643303 0.000000 0.000000
										CHANNELS 3 Xrotation Yrotation Zrotation
										JOINT mixamorig:LeftHandIndex3
										{
											OFFSET 3.810799 0.000000 0.000000
											CHANNELS 3 Xrotation Yrotation Zrotation
											JOINT mixamorig:LeftHandIndex4
											{
												OFFSET 2.403702 0.000000 0.000000
												CHANNELS 3 Xrotation Yrotation Zrotation
												End Site
												{
													OFFSET 2.403702 -0.000061 -0.001699
												}
											}
										}
									}
								}
								JOINT mixamorig:LeftHandMiddle1
								{
									OFFSET 8.563995 0.000000 -0.000000
									CHANNELS 3 Xrotation Yrotation Zrotation
									JOINT mixamorig:LeftHandMiddle2
									{
										OFFSET 3.861618 0.000000 0.000000
										CHANNELS 3 Xrotation Yrotation Zrotation
										JOINT mixamorig:LeftHandMiddle3
										{
											OFFSET 3.701603 0.000000 0.000000
											CHANNELS 3 Xrotation Yrotation Zrotation
											JOINT mixamorig:LeftHandMiddle4
											{
												OFFSET 2.322544 0.000000 0.000000
												CHANNELS 3 Xrotation Yrotation Zrotation
												End Site
												{
													OFFSET 2.322502 0.000252 0.014398
												}
											}
										}
									}
								}
								JOINT mixamorig:LeftHandRing1
								{
									OFFSET 8.426460 -0.424637 -3.286992
									CHANNELS 3 Xrotation Yrotation Zrotation
									JOINT mixamorig:LeftHandRing2
									{
										OFFSET 3.126408 0.000000 0.000000
										CHANNELS 3 Xrotation Yrotation Zrotation
										JOINT mixamorig:LeftHandRing3
										{
											OFFSET 3.085026 0.000000 0.000000
											CHANNELS 3 Xrotation Yrotation Zrotation
											JOINT mixamorig:LeftHandRing4
											{
												OFFSET 1.644005 0.000000 0.000000
												CHANNELS 3 Xrotation Yrotation Zrotation
												End Site
												{
													OFFSET 1.643898 -0.000336 -0.018597
												}
											}
										}
									}
								}
							}
						}
					}
				}
				JOINT mixamorig:RightShoulder
				{
					OFFSET -4.392200 8.824993 0.141379
					CHANNELS 3 Xrotation Yrotation Zrotation
					JOINT mixamorig:RightArm
					{
						OFFSET -8.771282 -2.981682 -0.094208
						CHANNELS 3 Xrotation Yrotation Zrotation
						JOINT mixamorig:RightForeArm
						{
							OFFSET -8.494598 0.000000 0.000000
							CHANNELS 3 Xrotation Yrotation Zrotation
							JOINT mixamorig:RightHand
							{
								OFFSET -18.483803 0.000000 0.000001
								CHANNELS 3 Xrotation Yrotation Zrotation
								JOINT mixamorig:RightHandThumb1
								{
									OFFSET -2.527351 -1.008076 2.575253
									CHANNELS 3 Xrotation Yrotation Zrotation
									JOINT mixamorig:RightHandThumb2
									{
										OFFSET -2.321518 -1.340328 1.340329
										CHANNELS 3 Xrotation Yrotation Zrotation
										JOINT mixamorig:RightHandThumb3
										{
											OFFSET -2.657753 -1.534454 1.534455
											CHANNELS 3 Xrotation Yrotation Zrotation
											JOINT mixamorig:RightHandThumb4
											{
												OFFSET -1.807510 -1.043568 1.043567
												CHANNELS 3 Xrotation Yrotation Zrotation
												End Site
												{
													OFFSET -1.737583 -1.058830 1.142293
												}
											}
										}
									}
								}
								JOINT mixamorig:RightHandIndex1
								{
									OFFSET -8.811420 0.015533 2.887987
									CHANNELS 3 Xrotation Yrotation Zrotation
									JOINT mixamorig:RightHandIndex2
									{
										OFFSET -3.537502 0.000000 0.000000
										CHANNELS 3 Xrotation Yrotation Zrotation
										JOINT mixamorig:RightHandIndex3
										{
											OFFSET -3.356201 0.000000 0.000000
											CHANNELS 3 Xrotation Yrotation Zrotation
											JOINT mixamorig:RightHandIndex4
											{
												OFFSET -1.933098 0.000000 0.000000
												CHANNELS 3 Xrotation Yrotation Zrotation
												End Site
												{
													OFFSET -1.933102 0.000000 0.000000
												}
											}
										}
									}
								}
								JOINT mixamorig:RightHandMiddle1
								{
									OFFSET -8.178135 0.000000 0.000000
									CHANNELS 3 Xrotation Yrotation Zrotation
									JOINT mixamorig:RightHandMiddle2
									{
										OFFSET -3.901302 0.000000 0.000000
										CHANNELS 3 Xrotation Yrotation Zrotation
										JOINT mixamorig:RightHandMiddle3
										{
											OFFSET -3.909599 0.000000 0.000000
											CHANNELS 3 Xrotation Yrotation Zrotation
											JOINT mixamorig:RightHandMiddle4
											{
												OFFSET -2.376003 0.000000 0.000000
												CHANNELS 3 Xrotation Yrotation Zrotation
												End Site
												{
													OFFSET -2.376003 0.000076 0.004199
												}
											}
										}
									}
								}
								JOINT mixamorig:RightHandRing1
								{
									OFFSET -7.559013 0.014137 -2.865403
									CHANNELS 3 Xrotation Yrotation Zrotation
									JOINT mixamorig:RightHandRing2
									{
										OFFSET -3.449306 0.000000 0.000000
										CHANNELS 3 Xrotation Yrotation Zrotation
										JOINT mixamorig:RightHandRing3
										{
											OFFSET -3.362106 0.000000 0.000000
											CHANNELS 3 Xrotation Yrotation Zrotation
											JOINT mixamorig:RightHandRing4
											{
												OFFSET -2.076401 0.000000 0.000000
												CHANNELS 3 Xrotation Yrotation Zrotation
												End Site
												{
													OFFSET -2.076401 0.000046 0.001400
												}
											}
										}
									}
								}
							}
						}
					}
				}
			}
		}
	}
	JOINT mixamorig:LeftUpLeg
	{
		OFFSET 10.205400 -3.823500 0.155100
		CHANNELS 3 Xrotation Yrotation Zrotation
		JOINT mixamorig:LeftLeg
		{
			OFFSET 0.708757 -12.982077 0.567790
			CHANNELS 3 Xrotation Yrotation Zrotation
			JOINT mixamorig:LeftFoot
			{
				OFFSET -0.708756 -10.717838 -2.184338
				CHANNELS 3 Xrotation Yrotation Zrotation
				JOINT mixamorig:LeftToeBase
				{
					OFFSET 0.108149 -7.191104 7.560241
					CHANNELS 3 Xrotation Yrotation Zrotation
					JOINT mixamorig:LeftToe_End
					{
						OFFSET 0.070230 0.081724 4.490308
						CHANNELS 3 Xrotation Yrotation Zrotation
						End Site
						{
							OFFSET 0.070230 0.081724 4.490308
						}
					}
				}
			}
		}
	}
	JOINT mixamorig:RightUpLeg
	{
		OFFSET -10.205400 -3.823500 0.005500
		CHANNELS 3 Xrotation Yrotation Zrotation
		JOINT mixamorig:RightLeg
		{
			OFFSET -0.708756 -12.982134 0.610632
			CHANNELS 3 Xrotation Yrotation Zrotation
			JOINT mixamorig:RightFoot
			{
				OFFSET 0.708754 -10.717769 -1.945823
				CHANNELS 3 Xrotation Yrotation Zrotation
				JOINT mixamorig:RightToeBase
				{
					OFFSET -0.108140 -7.191069 7.372968
					CHANNELS 3 Xrotation Yrotation Zrotation
					JOINT mixamorig:RightToe_End
					{
						OFFSET -0.070227 0.081735 4.479403
						CHANNELS 3 Xrotation Yrotation Zrotation
						End Site
						{
							OFFSET -0.070227 0.081735 4.479404
						}
					}
				}
			}
		}
	}
}
MOTION
Frames: 5
Frame Time: 0.016667
1.753729 33.745872 -0.299955 -0.900528 1.536162 -4.328562 1.280321 -1.178700 1.985545 0.728743 0.264195 5.944687 0.710789 0.781493 5.851998 1.045309 -0.304693 -2.163989 1.584931 0.544179 -8.140493 0.000000 0.000000 0.000000 3.582346 -13.764051 -5.044441 4.032794 3.514276 -83.678341 0.000010 -14.506750 0.000032 -27.592520 3.698848 -9.416220 18.491262 -0.461443 10.916075 1.284030 32.757604 -3.088965 2.117152 9.311156 -0.358614 -0.000002 -0.000002 0.000001 0.339558 4.671355 -7.844280 0.387024 2.823574 -20.566210 0.034640 0.816840 -10.169812 0.000001 -0.000000 -0.000001 0.912565 8.769270 -15.831742 0.919074 3.991131 -33.400400 0.170577 1.488888 -12.264406 0.000001 0.000001 -0.000001 2.555810 11.673042 -26.909217 1.710639 3.886768 -40.215450 0.544853 1.835074 -19.344160 0.000001 -0.000000 0.000000 4.508134 3.324371 5.471600 -1.219625 0.655868 67.345426 0.000019 17.736786 -0.000017 -11.193162 -9.123239 10.139295 18.491287 0.461428 -10.916074 1.284082 -32.757611 3.088966 2.008705 -8.430473 1.114725 0.000001 0.000003 -0.000003 0.339562 -4.671352 7.844282 0.387035 -2.823587 20.566270 -0.193120 -0.216344 13.843929 0.000000 -0.000000 0.000003 0.912592 -8.769264 15.831747 0.919076 -3.991133 33.400428 0.216468 -1.688827 15.898054 -0.000000 0.000001 -0.000001 2.555832 -11.673031 26.909195 1.710660 -3.886775 40.215467 -0.157956 0.035268 17.815351 0.000001 0.000000 0.000000 -20.369909 10.298468 16.843737 35.350747 7.544346 1.138328 -12.977941 5.631972 -10.867906 -0.441969 -0.000001 -0.000000 0.000000 -0.000002 -0.000000 6.174103 -3.232028 10.902798 2.874333 -5.303469 2.045148 -8.385797 0.766256 -7.487270 -0.548626 0.000005 0.000002 0.000000 0.000000 0.000000 
1.794599 33.754059 -0.333280 -1.037741 1.456013 -4.275488 1.346651 -1.256352 1.959770 0.756505 0.247118 5.938193 0.738527 0.764026 5.845832 0.978005 -0.318432 -2.151505 1.378055 0.492763 -8.189783 0.000000 -0.000000 0.000000 3.481394 -14.120336 -5.605316 4.607629 1.926157 -82.290836 0.000018 -15.625972 0.000023 -26.729530 2.292673 -9.542670 18.491274 -0.461441 10.916087 1.284054 32.757618 -3.088986 2.117138 9.311154 -0.358614 -0.000003 -0.000001 0.000001 0.342324 4.691108 -8.041202 0.393856 2.841652 -20.757742 0.037091 0.834018 -10.340958 0.000000 -0.000000 0.000001 0.925808 8.793197 -16.029892 0.930009 4.008324 -33.604688 0.174712 1.505487 -12.435620 0.000000 0.000002 -0.000004 2.572991 11.674930 -27.109458 1.725681 3.901311 -40.425281 0.552914 1.852321 -19.536103 -0.000001 -0.000000 -0.000000 4.444091 3.681476 6.315625 -0.953829 1.601473 66.451457 0.000002 17.561671 0.000015 -10.703545 -8.102136 10.189365 18.491281 0.461442 -10.916037 1.284062 -32.757621 3.088953 2.008696 -8.430470 1.114713 -0.000000 0.000000 -0.000000 0.339575 -4.671352 7.844298 0.387020 -2.823578 20.566226 -0.193105 -0.216352 13.843948 -0.000000 0.000000 -0.000004 0.912601 -8.769259 15.831755 0.919073 -3.991137 33.400414 0.216472 -1.688833 15.898061 -0.000000 0.000000 -0.000000 2.555839 -11.673026 26.909209 1.710648 -3.886770 40.215471 -0.157953 0.035271 17.815348 -0.000002 -0.000000 0.000000 -20.139731 10.325226 16.630058 35.227916 7.728596 1.196914 -12.940696 5.623829 -10.830517 -0.455800 0.000013 0.000001 0.000000 0.000001 -0.000000 6.026021 -3.250375 10.731806 3.282231 -5.189744 2.049619 -8.498285 0.696876 -7.396778 -0.573800 0.000001 0.000003 0.000000 -0.000000 0.000000 
1.839848 33.762760 -0.369655 -1.188053 1.397247 -4.221171 1.434251 -1.313580 1.934886 0.794515 0.235283 5.931273 0.776544 0.751724 5.839185 0.889980 -0.340856 -2.138189 1.133667 0.404117 -8.224244 -0.000000 -0.000000 0.000000 3.386897 -14.541439 -6.059138 5.039690 0.192578 -80.959844 -0.000009 -17.010825 -0.000001 -26.372219 0.413068 -9.810116 18.491277 -0.461429 10.916091 1.284049 32.757608 -3.088974 2.117132 9.311155 -0.358630 -0.000002 -0.000002 0.000003 0.350680 4.748027 -8.609342 0.413884 2.893692 -21.310533 0.044515 0.883668 -10.835822 -0.000000 -0.000000 0.000002 0.964483 8.861573 -16.601572 0.961890 4.057671 -34.193819 0.186983 1.553398 -12.930729 0.000000 -0.000000 0.000001 2.622542 11.680442 -27.687131 1.769368 3.942879 -41.030104 0.576476 1.901959 -20.090137 0.000000 0.000000 0.000000 4.394145 4.082668 7.029130 -0.234257 3.590093 65.261180 0.000018 17.586330 -0.000014 -10.940913 -7.427765 11.282281 18.491293 0.461425 -10.916083 1.284073 -32.757638 3.088962 2.008703 -8.430469 1.114720 0.000001 -0.000002 -0.000002 0.339574 -4.671353 7.844257 0.387028 -2.823580 20.566229 -0.193128 -0.216344 13.843958 -0.000000 -0.000000 0.000004 0.912601 -8.769259 15.831735 0.919079 -3.991140 33.400448 0.216464 -1.688815 15.898052 0.000000 0.000000 0.000002 2.555841 -11.673034 26.909197 1.710653 -3.886774 40.215454 -0.157951 0.035279 17.815341 0.000000 -0.000001 -0.000000 -19.909335 10.340550 16.385921 35.103306 7.902881 1.277031 -12.893951 5.627615 -10.782366 -0.460959 0.000009 0.000006 0.000000 0.000001 -0.000000 5.896989 -3.271710 10.552223 3.680354 -5.084733 2.050961 -8.607608 0.619891 -7.294182 -0.592835 0.000002 0.000001 0.000000 -0.000001 0.000000 
1.887839 33.767769 -0.408668 -1.348391 1.362823 -4.166948 1.552551 -1.343620 1.916060 0.844413 0.230276 5.924723 0.826480 0.746159 5.832870 0.779047 -0.371460 -2.124441 0.839366 0.280132 -8.246630 -0.000000 -0.000000 0.000000 3.290556 -15.028631 -6.435829 5.374374 -1.821758 -79.646747 0.000006 -18.816346 -0.000004 -26.339238 -1.273757 -10.456898 18.491260 -0.461444 10.916107 1.284039 32.757608 -3.088964 2.117142 9.311150 -0.358606 0.000002 -0.000003 0.000001 0.365153 4.838554 -9.514800 0.446866 2.976260 -22.192007 0.057259 0.962858 -11.626595 -0.000000 0.000001 0.000000 1.027665 8.968800 -17.513011 1.013700 4.135569 -35.132147 0.207434 1.629749 -13.721917 -0.000000 0.000000 -0.000000 2.701183 11.688766 -28.607580 1.839772 4.008092 -41.993089 0.615036 1.980617 -20.973477 0.000001 0.000000 0.000000 4.349609 4.521135 7.630920 0.856030 6.262869 63.690175 0.000019 17.880486 -0.000006 -11.481626 -7.217071 13.280350 18.491277 0.461435 -10.916083 1.284069 -32.757628 3.088972 2.008708 -8.430479 1.114728 0.000003 0.000000 -0.000001 0.339556 -4.671355 7.844271 0.387031 -2.823579 20.566227 -0.193118 -0.216347 13.843955 0.000001 0.000000 0.000004 0.912579 -8.769259 15.831714 0.919081 -3.991142 33.400441 0.216468 -1.688819 15.898054 -0.000001 -0.000001 -0.000001 2.555817 -11.673026 26.909185 1.710667 -3.886787 40.215467 -0.157948 0.035283 17.815329 -0.000001 0.000000 0.000000 -19.706446 10.336599 16.115973 35.023506 8.046126 1.390751 -12.858455 5.665251 -10.732356 -0.456939 0.000003 -0.000002 0.000000 0.000001 -0.000000 5.736213 -3.306414 10.374595 4.182774 -4.990243 2.036396 -8.780995 0.536296 -7.172219 -0.615549 0.000005 0.000002 0.000000 0.000000 0.000000 
1.940763 33.775513 -0.453804 -1.520827 1.358995 -4.114679 1.692800 -1.354158 1.902417 0.902436 0.230198 5.918850 0.884560 0.745466 5.827210 0.653535 -0.407667 -2.110208 0.510711 0.131739 -8.258004 -0.000000 0.000000 0.000000 3.187921 -15.568361 -6.781284 5.632253 -3.901322 -78.280163 0.000005 -20.863438 0.000001 -26.510240 -2.635365 -11.372672 18.491265 -0.461437 10.916101 1.284041 32.757611 -3.088962 2.117124 9.311150 -0.358604 -0.000003 -0.000002 0.000001 0.386715 4.959016 -10.723709 0.492915 3.085738 -23.369533 0.076034 1.068596 -12.685528 -0.000000 0.000000 -0.000001 1.114991 9.108794 -18.730491 1.084798 4.238150 -36.384151 0.236469 1.731522 -14.781434 0.000000 0.000000 0.000002 2.805270 11.698575 -29.836039 1.935389 4.093210 -43.277369 0.668420 2.084699 -22.153396 0.000000 -0.000000 0.000001 4.302031 4.983972 8.173002 2.191168 9.164567 61.835478 0.000008 18.303058 -0.000041 -12.081339 -7.417319 15.925742 18.491286 0.461435 -10.916068 1.284054 -32.757625 3.088948 2.008698 -8.430481 1.114709 -0.000006 0.000003 -0.000005 0.339553 -4.671350 7.844279 0.387032 -2.823586 20.566215 -0.193114 -0.216352 13.843952 0.000000 -0.000001 -0.000001 0.912580 -8.769253 15.831754 0.919079 -3.991143 33.400431 0.216469 -1.688824 15.898049 0.000000 0.000002 -0.000000 2.555829 -11.673027 26.909202 1.710654 -3.886779 40.215447 -0.157948 0.035282 17.815341 -0.000001 -0.000001 0.000001 -19.513323 10.327732 15.821404 34.922170 8.158283 1.520767 -12.791957 5.714520 -10.655397 -0.448583 -0.000002 -0.000002 0.000000 -0.000001 -0.000000 5.626024 -3.331925 10.189372 4.590723 -4.920407 2.026047 -8.900876 0.445564 -7.043631 -0.642003 0.000004 0.000002 -0.000000 -0.000001 -0.000000 
